<?xml version="1.0" encoding="UTF-8" standalone="no"?>
<svg
   width="68px"
   height="112px"
   viewBox="0 0 68 112"
   xmlns="http://www.w3.org/2000/svg">
  <g
     id="tram"
     stroke="none"
     stroke-width="1"
     fill="none"
     fill-rule="evenodd"
     transform="translate(0,1.5)">
    <rect
       stroke="#000000"
       stroke-width="8"
       x="8"
       y="27.6"
       width="52"
       height="68"
       rx="14"
       id="rect1" />
    <rect
       stroke="#000000"
       fill="#000000"
       x="14.5"
       y="96"
       width="10"
       height="14"
       rx="4.5"
       id="rect2" />
    <rect
       stroke="#000000"
       fill="#000000"
       x="43.5"
       y="96"
       width="10"
       height="14"
       rx="4.5"
       id="rect3" />
    <rect
       stroke="#000000"
       fill="#000000"
       x="0.5"
       y="47"
       width="4"
       height="14"
       rx="2"
       id="rect4" />
    <rect
       stroke="#000000"
       fill="#000000"
       x="63.5"
       y="47"
       width="4"
       height="14"
       rx="2"
       id="rect5" />
    <line
       x1="15.5"
       y1="10.5"
       x2="51.5"
       y2="10.5"
       id="antenna"
       stroke="#000000"
       stroke-width="3"
       stroke-linecap="square" />
    <path
       d="M 13.5,16.7 C 13.2,5.9 20,0.5 33.5,0.5 47.2,0.5 54,5.9 54,16.7"
       id="antenna-top"
       stroke="#000000"
       stroke-width="4" />
    <path
       d="m 36.3,25.7 c -4,0 -6,-2.4 -6,-7.5 0,-5.1 2,-7.7 6,-7.7"
       id="antenna-up"
       stroke="#000000"
       stroke-width="1.45"
       style="stroke-width:3;stroke-dasharray:none" />
    <line
       x1="14.5"
       y1="46.200001"
       x2="25.5"
       y2="97.199997"
       id="left"
       stroke="#000000"
       stroke-width="5"
       stroke-linecap="square" />
    <line
       x1="53.5"
       y1="46.200001"
       x2="42.5"
       y2="97.199997"
       id="right"
       stroke="#000000"
       stroke-width="5"
       stroke-linecap="square" />
    <path
       d="m 47.8,85.5 c 0.6,-0.1 1.3,-0.1 1.9,0.3 0.4,0.2 0.766435,0.526913 0.994905,0.942312 l 4.234915,7.699846 c 0.332695,0.604901 0.38871,1.287387 0.210326,1.901822 -0.178385,0.614435 -0.591168,1.160819 -1.196069,1.493515 -0.369113,0.203011 -0.78354,0.30946 -1.204797,0.30946 h -8.46983 c -0.690356,0 -1.315356,-0.279822 -1.767767,-0.732233 -0.452411,-0.452411 -0.732233,-1.077411 -0.732233,-1.767767 0,-0.421258 0.106448,-0.835685 0.30946,-1.204797 l 4.234915,-7.699846 c 0.332696,-0.604901 0.879079,-1.017684 1.493514,-1.196068 z"
       stroke="#000000"
       stroke-width="3"
       fill="#ffffff"
       transform="matrix(0.76604444,0.64278761,0.64278761,-0.76604444,-46.276086,129.49555)"
       id="path5" />
    <path
       d="m 18.80537,85.546244 c 0.614435,-0.178385 1.296922,-0.12237 1.901823,0.210325 0.415399,0.22847 0.757273,0.570344 0.985742,0.985743 l 4.234916,7.699846 c 0.332695,0.604901 0.38871,1.287387 0.210325,1.901822 -0.178384,0.614435 -0.591168,1.160819 -1.196068,1.493515 -0.369113,0.203011 -0.78354,0.30946 -1.204797,0.30946 h -8.46983 c -0.690356,0 -1.315356,-0.279822 -1.767767,-0.732233 -0.452411,-0.452411 -0.732233,-1.077411 -0.732233,-1.767767 0,-0.421258 0.106448,-0.835685 0.30946,-1.204797 l 4.234915,-7.699846 c 0.332695,-0.604901 0.879079,-1.017684 1.493514,-1.196068 z"
       id="path4"
       stroke="#000000"
       stroke-width="3"
       fill="#ffffff"
       transform="matrix(0.75470958,-0.65605903,-0.65605903,-0.75470958,63.597445,172.45214)" />
    <rect
       id="rect6"
       fill="#000000"
       x="10"
       y="30.646955"
       width="48"
       height="14" />
    <rect
       id="rect7"
       fill="#ffffff"
       x="14"
       y="31.146955"
       width="40"
       height="7.5"
       rx="3" />
  </g>
</svg>
